<?xml version="1.0" encoding="UTF-8" ?>
<!DOCTYPE svg PUBLIC "-//W3C//DTD SVG 1.1//EN" "http://www.w3.org/Graphics/SVG/1.1/DTD/svg11.dtd">
<svg width="442pt" height="101pt" viewBox="0 0 442 101" version="1.1" xmlns="http://www.w3.org/2000/svg">
<g id="#00daabff">
<path fill="#00daab" opacity="1.00" d=" M 195.22 5.23 C 209.65 4.81 224.52 5.28 238.16 10.53 C 247.69 14.11 256.30 21.15 260.13 30.77 C 263.70 39.33 263.44 48.78 263.19 57.87 C 262.92 67.08 259.74 76.48 253.16 83.11 C 246.99 89.44 238.63 93.15 230.15 95.22 C 218.33 98.26 206.06 98.22 193.95 97.94 C 180.38 96.97 166.00 94.57 155.12 85.77 C 147.02 79.37 142.77 69.13 142.22 58.98 C 142.09 49.16 141.37 38.82 145.71 29.69 C 148.85 22.56 154.61 16.82 161.46 13.21 C 171.79 7.62 183.66 5.99 195.22 5.23 M 189.52 34.85 C 183.91 36.02 178.61 39.98 177.42 45.82 C 176.56 51.94 176.32 59.19 180.95 63.98 C 185.52 68.24 192.03 69.15 198.01 69.66 C 205.35 69.85 213.06 69.96 219.93 66.98 C 224.40 65.09 227.73 60.81 228.20 55.95 C 228.72 50.55 228.87 44.28 225.03 39.96 C 220.99 35.49 214.66 34.26 208.92 33.75 C 202.45 33.37 195.85 33.30 189.52 34.85 Z" />
<path fill="#00daab" opacity="1.00" d=" M 9.18 7.20 C 25.06 7.06 40.94 7.24 56.82 7.11 C 69.87 22.52 82.54 38.25 95.51 53.74 C 95.48 38.19 95.20 22.61 95.65 7.08 C 107.17 7.24 118.69 7.12 130.21 7.14 C 130.37 36.76 130.24 66.38 130.28 96.00 C 117.19 96.00 104.11 96.00 91.03 96.00 C 75.32 78.23 59.86 60.24 44.03 42.59 C 43.96 60.39 44.02 78.20 44.00 96.00 C 32.38 95.99 20.76 96.02 9.14 95.99 C 9.19 66.39 9.10 36.80 9.18 7.20 Z" />
<path fill="#00daab" opacity="1.00" d=" M 273.11 7.58 C 301.73 7.23 330.36 7.56 358.99 7.41 C 370.23 7.25 381.10 13.53 387.07 22.97 C 391.94 30.25 392.96 39.42 391.51 47.91 C 389.53 58.11 382.32 66.92 373.03 71.43 C 379.56 79.52 385.87 87.79 392.26 95.99 C 379.84 96.02 367.41 95.97 354.99 96.02 C 349.22 88.99 344.13 81.24 338.00 74.61 C 328.00 74.49 318.00 74.60 308.00 74.57 C 308.00 81.71 308.00 88.86 308.00 96.00 C 296.38 95.99 284.76 96.01 273.14 95.99 C 273.14 66.52 273.20 37.05 273.11 7.58 M 308.00 33.57 C 308.00 38.52 308.00 43.48 308.00 48.43 C 321.66 48.43 335.32 48.46 348.98 48.42 C 351.97 48.55 354.93 47.08 356.40 44.43 C 358.97 39.86 355.30 33.29 349.92 33.57 C 335.95 33.56 321.98 33.57 308.00 33.57 Z" />
<path fill="#00daab" opacity="1.00" d=" M 394.14 70.01 C 405.76 69.99 417.38 70.01 429.00 70.00 C 429.00 78.67 429.00 87.33 429.00 96.00 C 417.38 95.99 405.76 96.02 394.14 95.99 C 394.16 87.33 394.16 78.67 394.14 70.01 Z" />
</g>
</svg>
